<?xml version="1.0" encoding="UTF-8"?>
<svg id="UTSW" xmlns="http://www.w3.org/2000/svg" version="1.1" viewBox="0 0 462 91">
  <defs>
    <style>
      .cls-1 {
        fill: #636466;
      }

      .cls-1, .cls-2 {
        stroke-width: 0px;
      }

      .cls-2 {
        fill: #004c97;
      }
    </style>
  </defs>
  <g id="_Group_" data-name=" Group ">
    <g id="_Group_2" data-name=" Group 2">
      <path id="_Compound_Path_" data-name=" Compound Path " class="cls-1" d="M159,58.1h5.7l9.9,26.4,9.9-26.4h5.7v31.4h-4v-26.1h0l-9.8,26.1h-3.6l-9.8-26.1h0v26.1h-4v-31.4Z"/>
      <path id="_Compound_Path_2" data-name=" Compound Path 2" class="cls-1" d="M214.9,82.3c-1,5-4.6,7.7-9.7,7.7-7.2,0-10.7-5-10.9-12,0-6.8,4.5-11.8,10.7-11.8s10.5,7.5,10.3,13h-17c-.1,4,2.1,7.5,7.1,7.5s5.2-1.5,5.9-4.4h3.7ZM211.3,75.9c0-3.6-3-6.4-6.5-6.4-3.9,0-6.2,2.9-6.5,6.4h13.1Z"/>
      <path id="_Compound_Path_3" data-name=" Compound Path 3" class="cls-1" d="M240.3,89.5h-3.7v-3.1h0c-1.2,2.5-4.1,3.6-7.2,3.6-7,0-10.5-5.5-10.5-12s3.4-11.8,10.4-11.8,5.7.9,7.3,3.6h0v-11.7h3.7v31.4ZM229.8,86.7c5,0,6.9-4.3,6.9-8.6s-2-8.6-7.2-8.6-6.8,4.3-6.8,8.8c0,4.3,2.2,8.4,7,8.4Z"/>
      <path id="_Compound_Path_4" data-name=" Compound Path 4" class="cls-1" d="M250.1,62.7h-3.7v-4.6h3.7v4.6ZM246.4,66.8h3.7v22.7h-3.7v-22.7Z"/>
      <path id="_Compound_Path_5" data-name=" Compound Path 5" class="cls-1" d="M271.6,74.1c-.4-2.8-2.8-4.7-5.6-4.5-5.4,0-7.1,4.3-7.1,8.9s1.9,8.3,6.6,8.3,5.8-2.1,6.2-5.5h3.8c-.8,5.5-4.3,8.8-10,8.8s-10.6-4.8-10.6-11.6,3.5-12.2,10.7-12.2,9.3,2.4,9.8,7.8h-3.9Z"/>
      <path id="_Compound_Path_6" data-name=" Compound Path 6" class="cls-1" d="M300,89.4c-.8.4-1.7.7-2.7.6-1.9,0-3.2-1.1-3.2-3.5-2,2.3-4.9,3.6-8,3.5-4.1,0-7.5-1.8-7.5-6.4s3.8-6.2,7.7-7c4.1-.8,7.6-.5,7.6-3.3s-2.7-3.8-5.1-3.8-5.5,1-5.7,4.3h-3.7c.2-5.6,4.6-7.6,9.6-7.6s8.5.9,8.5,6.2v11.7c0,1.8,0,2.6,1.2,2.6.4,0,.8,0,1.1-.2v2.9ZM293.9,77.7c-1.4,1.1-4.3,1.1-6.8,1.5-2.5.4-4.6,1.3-4.6,4.1s2.1,3.3,4.4,3.3c4.9,0,6.9-3.1,6.9-5.1v-3.8Z"/>
      <path id="_Compound_Path_7" data-name=" Compound Path 7" class="cls-1" d="M305.1,58.1h3.7v31.4h-3.7v-31.4Z"/>
      <path id="_Compound_Path_8" data-name=" Compound Path 8" class="cls-1" d="M345.6,67.5c-.9-4.4-4.4-6.7-8.8-6.7-7.5,0-10.6,6.2-10.6,12.7s3.2,13.1,10.7,13.1,8.7-3.9,9.1-9.1h4.2c-.8,7.8-5.7,12.6-13.6,12.6s-14.5-7.2-14.5-16.3,5.2-16.5,14.8-16.5,11.9,3.5,12.9,10.2h-4.2Z"/>
      <path id="_Compound_Path_9" data-name=" Compound Path 9" class="cls-1" d="M373.6,82.3c-1,5-4.6,7.7-9.7,7.7-7.2,0-10.7-5-10.9-12,0-6.8,4.5-11.8,10.7-11.8s10.5,7.5,10.3,13h-17c-.1,4,2.1,7.5,7.1,7.5s5.2-1.5,5.9-4.4h3.7ZM370,75.9c0-3.6-3-6.4-6.5-6.4-3.9,0-6.2,2.9-6.5,6.4h13Z"/>
      <path id="_Compound_Path_10" data-name=" Compound Path 10" class="cls-1" d="M377.5,66.8h3.5v3.6h0c1.5-2.7,4.3-4.3,7.4-4.1,6,0,7.8,3.4,7.8,8.3v14.9h-3.7v-15.4c.2-2.4-1.6-4.4-4-4.6-.2,0-.4,0-.7,0-4.5,0-6.7,3-6.7,7.1v12.8h-3.7v-22.7Z"/>
      <path id="_Compound_Path_11" data-name=" Compound Path 11" class="cls-1" d="M407.7,66.8h4.5v3.3h-4.5v14.1c0,1.7.5,2,2.8,2h1.7v3.3h-2.9c-3.9,0-5.4-.8-5.4-5v-14.5h-3.9v-3.3h3.9v-6.8h3.7v6.8Z"/>
      <path id="_Compound_Path_12" data-name=" Compound Path 12" class="cls-1" d="M435.5,82.3c-1,5-4.6,7.7-9.7,7.7-7.2,0-10.7-5-10.9-12,0-6.8,4.5-11.8,10.7-11.8s10.5,7.5,10.3,13h-17c-.1,4,2.1,7.5,7.1,7.5s5.2-1.5,5.9-4.4h3.7ZM431.9,75.9c0-3.6-3-6.4-6.5-6.4-3.9,0-6.2,2.9-6.5,6.4h13.1Z"/>
      <path id="_Compound_Path_13" data-name=" Compound Path 13" class="cls-1" d="M440.1,66.8h3.5v4.8h0c1.8-3.6,4.3-5.4,8.3-5.3v4c-6,0-8.2,3.4-8.2,9.2v10.1h-3.7v-22.7Z"/>
    </g>
    <g id="_Group_3" data-name=" Group 3">
      <path id="_Compound_Path_14" data-name=" Compound Path 14" class="cls-2" d="M79.6,30.5c.2,4.6,3,6.1,7.2,6.1s6-1.1,6-4-5.4-4.1-10.9-5.7c-5.4-1.6-11.1-4.1-11.1-11.2s8.3-11.8,15.4-11.8,15.1,3.8,15.2,12.6h-9.9c.2-3.5-3.1-4.7-6.1-4.7s-4.8.8-4.8,3.3,5.5,3.5,11,5.1c5.5,1.6,11,4.2,11,11.2s-8.2,13-16.5,13-16.4-3.9-16.4-13.9h9.9Z"/>
      <path id="_Compound_Path_15" data-name=" Compound Path 15" class="cls-2" d="M120.3,11c9.5,0,16.2,7.3,16.2,16.8s-6.7,16.7-16.2,16.7-16.2-7.2-16.2-16.7c0-9.5,6.6-16.8,16.2-16.8ZM120.3,36.6c4.7,0,6.2-4.8,6.2-8.8s-1.5-8.9-6.2-8.9-6.1,4.8-6.1,8.9,1.4,8.8,6.1,8.8Z"/>
      <path id="_Compound_Path_16" data-name=" Compound Path 16" class="cls-2" d="M169.4,43.6h-9.8v-4.3h-.1c-2,3.2-5.6,5.2-9.4,5.3-8.8,0-11.4-5.3-11.4-13.6V11.9h10.1v18.4c0,4.2,1.8,5.7,5,5.7s5.5-1.5,5.5-7.1V11.9h10.1v31.7Z"/>
      <path id="_Compound_Path_17" data-name=" Compound Path 17" class="cls-2" d="M192.6,18.6h-6.2v14.4c0,2.5,1.4,3.1,3.6,3.1s1.7-.1,2.6-.1v7.6c-1.8,0-3.7.3-5.5.3-8.6,0-10.8-2.6-10.8-11.2v-14.1h-4.6v-6.7h4.6V2.3h10.1v9.6h6.2v6.7Z"/>
      <path id="_Compound_Path_18" data-name=" Compound Path 18" class="cls-2" d="M196.1,0h10.1v16.2h.1c1.5-3.2,5.7-5.3,9.4-5.3,10.3,0,11.1,7.7,11.1,12.3v20.3h-10.1v-15.3c0-4.3.5-8.7-5-8.7s-5.5,3.3-5.5,6.8v17.3h-10.1V0Z"/>
      <path id="_Compound_Path_19" data-name=" Compound Path 19" class="cls-2" d="M266.8,43.6h-10.2l-4.9-21.1h-.1l-4.8,21.1h-10.2l-9.6-31.7h10.2l5.1,20.5h.1l4.4-20.5h9.6l4.5,20.5h.1l5-20.5h10.3l-9.6,31.7Z"/>
      <path id="_Compound_Path_20" data-name=" Compound Path 20" class="cls-2" d="M285.3,30.3c.2,4.3,2.6,7.2,6.9,7.2,2.4.1,4.7-1.3,5.7-3.5h9.4c-1.8,7.3-8.4,10.5-15.3,10.5-10,0-16.8-6.2-16.8-16.9-.2-9,7-16.5,16.1-16.7.2,0,.3,0,.5,0,11,0,16.5,8.6,16.1,19.3h-22.6ZM297.8,24.5c-.2-3.5-2.6-6.5-6-6.5s-5.9,2.6-6.5,6.5h12.5Z"/>
      <path id="_Compound_Path_21" data-name=" Compound Path 21" class="cls-2" d="M319.5,33.2c0,1.4.6,2.7,1.7,3.5,1.1.8,2.4,1.1,3.7,1.1,2,0,4.7-.9,4.7-3.4s-3.1-2.9-4.9-3.4c-6.3-1.7-14.3-1.8-14.3-10.4s8-9.7,14-9.7,13.8,2,14.2,10.3h-9.3c0-1.1-.4-2.1-1.3-2.7-1-.6-2.1-.8-3.2-.8-1.7,0-4.3.2-4.3,2.4s6.8,3.5,11.4,4.6c6.2,1.3,7.8,5.9,7.8,8.6,0,8.5-7.8,11.3-14.8,11.3s-14.7-2.5-15-11.4h9.6Z"/>
      <path id="_Compound_Path_22" data-name=" Compound Path 22" class="cls-2" d="M360.8,18.6h-6.2v14.4c0,2.5,1.4,3.1,3.6,3.1s1.7-.1,2.6-.1v7.6c-1.8,0-3.7.3-5.5.3-8.6,0-10.8-2.6-10.8-11.2v-14.1h-5.1v-6.7h5.1V2.3h10.1v9.6h6.2v6.7Z"/>
      <path id="_Compound_Path_23" data-name=" Compound Path 23" class="cls-2" d="M371.5,30.3c.2,4.3,2.6,7.2,6.9,7.2,2.4.1,4.7-1.3,5.7-3.5h9.4c-1.8,7.3-8.4,10.5-15.3,10.5-10,0-16.8-6.2-16.8-16.9-.2-9,7-16.5,16.1-16.7.2,0,.3,0,.5,0,11,0,16.5,8.6,16.1,19.3h-22.6ZM384,24.5c-.2-3.5-2.6-6.5-6-6.5s-5.9,2.6-6.5,6.5h12.5Z"/>
      <path id="_Compound_Path_24" data-name=" Compound Path 24" class="cls-2" d="M397.1,11.9h9.8v5.6h.1c1.5-4,4.9-6.2,9.2-6.2.8,0,1.6,0,2.4.2v9.5c-1.2-.4-2.5-.6-3.9-.6-4-.2-7.4,2.8-7.6,6.8,0,.3,0,.5,0,.8v15.7h-10.1V11.9Z"/>
      <path id="_Compound_Path_25" data-name=" Compound Path 25" class="cls-2" d="M421.4,11.9h9.8v4.3h.1c1.8-3.2,6-5.3,9.7-5.3,10.2,0,11.1,7.7,11.1,12.3v20.3h-10.1v-15.3c0-4.3.5-8.7-5-8.7s-5.4,3.3-5.4,6.8v17.3h-10.1V11.9Z"/>
      <path id="_Compound_Path_26" data-name=" Compound Path 26" class="cls-2" d="M65,13.7h-11.6v29.9h-10.1V13.7h-10.7V5.5h32.5v8.2Z"/>
      <path id="_Path_" data-name=" Path " class="cls-2" d="M16.6,44.4c11.5-.1,16.6-5.7,16.6-16.9V5.5h-10.1v22.7c0,4.9-1.8,7.4-6.4,7.6-4.7-.1-6.5-2.7-6.5-7.6V5.5H0v22.1c0,11.2,5.1,16.8,16.6,16.9Z"/>
    </g>
  </g>
  <path class="cls-1" d="M456.9,81.8c.6,0,1.2,0,1.7.4.4.3.6.8.6,1.3,0,.2,0,.5-.1.7,0,.2-.2.3-.3.5-.1.1-.3.2-.5.3-.2,0-.4.1-.6.1l1.5,2.5h-1.2l-1.4-2.5h-.7v2.5h-1.1v-5.7h2.2ZM456.9,84.2c.3,0,.6,0,.8-.1.2,0,.3-.3.3-.7,0-.1,0-.3-.1-.4,0,0-.2-.2-.3-.2-.1,0-.3,0-.4-.1-.1,0-.3,0-.4,0h-1v1.5h1Z"/>
  <path class="cls-1" d="M456.7,79.5c-2.9,0-5.3,2.4-5.3,5.3s2.4,5.3,5.3,5.3c2.9,0,5.3-2.4,5.3-5.3h0c0-2.9-2.4-5.3-5.3-5.3ZM456.7,88.9c-2.3,0-4.2-1.9-4.2-4.2s1.9-4.2,4.2-4.2c2.3,0,4.2,1.9,4.2,4.2h0c0,2.3-1.9,4.2-4.2,4.2h0Z"/>
</svg>